<svg width="21" height="20" viewBox="0 0 21 20" fill="none" xmlns="http://www.w3.org/2000/svg">
<path d="M6.125 5.01133L8.925 1.38633C9.125 1.11966 9.3625 0.923828 9.6375 0.798828C9.9125 0.673828 10.2 0.611328 10.5 0.611328C10.8 0.611328 11.0875 0.673828 11.3625 0.798828C11.6375 0.923828 11.875 1.11966 12.075 1.38633L14.875 5.01133L19.125 6.43633C19.5583 6.56966 19.9 6.8155 20.15 7.17383C20.4 7.53216 20.525 7.92799 20.525 8.36133C20.525 8.56133 20.4958 8.76133 20.4375 8.96133C20.3792 9.16133 20.2833 9.35299 20.15 9.53633L17.4 13.4363L17.5 17.5363C17.5167 18.1197 17.325 18.6113 16.925 19.0113C16.525 19.4113 16.0583 19.6113 15.525 19.6113C15.4917 19.6113 15.3083 19.5863 14.975 19.5363L10.5 18.2863L6.025 19.5363C5.94167 19.5697 5.85 19.5905 5.75 19.5988C5.65 19.6072 5.55833 19.6113 5.475 19.6113C4.94167 19.6113 4.475 19.4113 4.075 19.0113C3.675 18.6113 3.48333 18.1197 3.5 17.5363L3.6 13.4113L0.875 9.53633C0.741667 9.35299 0.645833 9.16133 0.5875 8.96133C0.529167 8.76133 0.5 8.56133 0.5 8.36133C0.5 7.94466 0.620833 7.55716 0.8625 7.19883C1.10417 6.8405 1.44167 6.58633 1.875 6.43633L6.125 5.01133Z" fill="#D9D9D9"/>
</svg>
