<svg width="25" height="25" viewBox="0 0 25 25" fill="none" xmlns="http://www.w3.org/2000/svg">
<mask id="mask0_73_15541" style="mask-type:alpha" maskUnits="userSpaceOnUse" x="0" y="0" width="25" height="25">
<rect x="0.5" y="0.611328" width="24" height="24" fill="#D9D9D9"/>
</mask>
<g mask="url(#mask0_73_15541)">
<path d="M8.125 7.01133L10.925 3.38633C11.125 3.11966 11.3625 2.92383 11.6375 2.79883C11.9125 2.67383 12.2 2.61133 12.5 2.61133C12.8 2.61133 13.0875 2.67383 13.3625 2.79883C13.6375 2.92383 13.875 3.11966 14.075 3.38633L16.875 7.01133L21.125 8.43633C21.5583 8.56966 21.9 8.8155 22.15 9.17383C22.4 9.53216 22.525 9.92799 22.525 10.3613C22.525 10.5613 22.4958 10.7613 22.4375 10.9613C22.3792 11.1613 22.2833 11.353 22.15 11.5363L19.4 15.4363L19.5 19.5363C19.5167 20.1197 19.325 20.6113 18.925 21.0113C18.525 21.4113 18.0583 21.6113 17.525 21.6113C17.4917 21.6113 17.3083 21.5863 16.975 21.5363L12.5 20.2863L8.025 21.5363C7.94167 21.5697 7.85 21.5905 7.75 21.5988C7.65 21.6072 7.55833 21.6113 7.475 21.6113C6.94167 21.6113 6.475 21.4113 6.075 21.0113C5.675 20.6113 5.48333 20.1197 5.5 19.5363L5.6 15.4113L2.875 11.5363C2.74167 11.353 2.64583 11.1613 2.5875 10.9613C2.52917 10.7613 2.5 10.5613 2.5 10.3613C2.5 9.94466 2.62083 9.55716 2.8625 9.19883C3.10417 8.8405 3.44167 8.58633 3.875 8.43633L8.125 7.01133Z" fill="#EDCF5D"/>
</g>
</svg>
