<svg width="25" height="25" viewBox="0 0 25 25" fill="none" xmlns="http://www.w3.org/2000/svg">
<mask id="mask0_73_15562" style="mask-type:alpha" maskUnits="userSpaceOnUse" x="0" y="0" width="25" height="25">
<rect x="0.5" y="0.611328" width="24" height="24" fill="#D9D9D9"/>
</mask>
<g mask="url(#mask0_73_15562)">
<path d="M18.5 21.6113H7.5V8.61133L14.5 1.61133L15.75 2.86133C15.8667 2.97799 15.9625 3.13633 16.0375 3.33633C16.1125 3.53633 16.15 3.72799 16.15 3.91133V4.26133L15.05 8.61133H21.5C22.0333 8.61133 22.5 8.81133 22.9 9.21133C23.3 9.61133 23.5 10.078 23.5 10.6113V12.6113C23.5 12.728 23.4833 12.853 23.45 12.9863C23.4167 13.1197 23.3833 13.2447 23.35 13.3613L20.35 20.4113C20.2 20.7447 19.95 21.028 19.6 21.2613C19.25 21.4947 18.8833 21.6113 18.5 21.6113ZM9.5 19.6113H18.5L21.5 12.6113V10.6113H12.5L13.85 5.11133L9.5 9.46133V19.6113ZM7.5 8.61133V10.6113H4.5V19.6113H7.5V21.6113H2.5V8.61133H7.5Z" fill="#111827"/>
</g>
</svg>
