<svg width="25" height="25" viewBox="0 0 25 25" fill="none" xmlns="http://www.w3.org/2000/svg">
<mask id="mask0_73_15566" style="mask-type:alpha" maskUnits="userSpaceOnUse" x="0" y="0" width="25" height="25">
<rect x="24.5" y="24.6113" width="24" height="24" transform="rotate(180 24.5 24.6113)" fill="#D9D9D9"/>
</mask>
<g mask="url(#mask0_73_15566)">
<path d="M6.5 3.61133H17.5V16.6113L10.5 23.6113L9.25 22.3613C9.13333 22.2447 9.0375 22.0863 8.9625 21.8863C8.8875 21.6863 8.85 21.4947 8.85 21.3113V20.9613L9.95 16.6113H3.5C2.96667 16.6113 2.5 16.4113 2.1 16.0113C1.7 15.6113 1.5 15.1447 1.5 14.6113V12.6113C1.5 12.4947 1.51667 12.3697 1.55 12.2363C1.58333 12.103 1.61667 11.978 1.65 11.8613L4.65 4.81133C4.8 4.47799 5.05 4.19466 5.4 3.96133C5.75 3.72799 6.11667 3.61133 6.5 3.61133ZM15.5 5.61133H6.5L3.5 12.6113V14.6113H12.5L11.15 20.1113L15.5 15.7613V5.61133ZM17.5 16.6113V14.6113H20.5V5.61133H17.5V3.61133H22.5V16.6113H17.5Z" fill="#111827"/>
</g>
</svg>
