<svg width="34" height="34" viewBox="0 0 34 34" fill="none" xmlns="http://www.w3.org/2000/svg">
<mask id="mask0_67_10540" style="mask-type:alpha" maskUnits="userSpaceOnUse" x="0" y="0" width="34" height="34">
<rect y="16.9707" width="24" height="24" transform="rotate(-45 0 16.9707)" fill="#D9D9D9"/>
</mask>
<g mask="url(#mask0_67_10540)">
<path d="M19.7989 19.7991V14.1423H14.1421L14.1421 16.1222L16.4048 16.1222L13.435 19.092L14.8492 20.5062L17.819 17.5364L17.819 19.7991H19.7989ZM24.0416 24.0418C23.0634 25.0199 21.9586 25.7536 20.727 26.2426C19.4955 26.7317 18.2433 26.9763 16.9705 26.9763C15.6977 26.9763 14.4455 26.7317 13.214 26.2426C11.9825 25.7536 10.8776 25.0199 9.89944 24.0418C8.92127 23.0636 8.18765 21.9588 7.69857 20.7272C7.20948 19.4957 6.96494 18.2435 6.96494 16.9707C6.96494 15.6979 7.20948 14.4457 7.69857 13.2142C8.18765 11.9827 8.92127 10.8778 9.89944 9.89964C10.8776 8.92147 11.9825 8.18785 13.214 7.69877C14.4455 7.20968 15.6977 6.96514 16.9705 6.96514C18.2433 6.96514 19.4955 7.20968 20.727 7.69877C21.9586 8.18785 23.0634 8.92147 24.0416 9.89964C25.0197 10.8778 25.7534 11.9827 26.2424 13.2142C26.7315 14.4457 26.9761 15.6979 26.9761 16.9707C26.9761 18.2435 26.7315 19.4957 26.2424 20.7272C25.7534 21.9588 25.0197 23.0636 24.0416 24.0418Z" fill="white"/>
</g>
</svg>
