<svg width="132" height="42" viewBox="0 0 132 42" fill="none" xmlns="http://www.w3.org/2000/svg">
<rect width="132" height="41.9411" rx="20.9706" fill="#0EA5E9"/>
<path d="M17.256 26.4707V15.2707H21.088C22.1227 15.2707 22.9147 15.5 23.464 15.9587C24.0187 16.412 24.296 17.0894 24.296 17.9907C24.296 18.6307 24.1547 19.18 23.872 19.6387C23.5893 20.0974 23.1653 20.412 22.6 20.5827L22.736 20.2707C23.5627 20.4254 24.192 20.7534 24.624 21.2547C25.056 21.756 25.272 22.4307 25.272 23.2787C25.272 24.2707 24.952 25.052 24.312 25.6227C23.672 26.188 22.792 26.4707 21.672 26.4707H17.256ZM19 24.9027H21.472C22.064 24.9027 22.536 24.7667 22.888 24.4947C23.2453 24.2174 23.424 23.772 23.424 23.1587C23.424 22.492 23.24 22.0307 22.872 21.7747C22.5093 21.5134 22.0427 21.3827 21.472 21.3827H19V24.9027ZM19 19.8147H20.848C21.3707 19.8147 21.7813 19.7107 22.08 19.5027C22.384 19.2894 22.536 18.8974 22.536 18.3267C22.536 17.7507 22.384 17.3587 22.08 17.1507C21.7813 16.9374 21.3707 16.8307 20.848 16.8307H19V19.8147ZM29.6559 26.6307C28.9465 26.6307 28.3625 26.4894 27.9039 26.2067C27.4452 25.924 27.1039 25.5134 26.8799 24.9747C26.6559 24.436 26.5439 23.7827 26.5439 23.0147V18.5667H28.2159V22.7827C28.2159 23.5774 28.3492 24.1774 28.6159 24.5827C28.8879 24.988 29.3305 25.1907 29.9439 25.1907C30.3865 25.1907 30.7785 25.084 31.1199 24.8707C31.4665 24.6574 31.7225 24.332 31.8879 23.8947L31.6159 24.7747V18.5667H33.2879V26.4707H31.7679L31.5599 24.9987L31.9599 25.3827C31.7305 25.7667 31.4185 26.0707 31.0239 26.2947C30.6345 26.5187 30.1785 26.6307 29.6559 26.6307ZM35.818 30.3427L37.61 26.0467L34.322 18.5667H36.178L38.458 24.1027L40.61 18.5667H42.466L37.578 30.3427H35.818ZM47.3966 26.4707V15.2707H49.2046L54.4126 23.1667V15.2707H56.1646V26.4707H54.7086L49.1406 18.1187V26.4707H47.3966ZM61.6671 26.6307C60.8298 26.6307 60.1125 26.4467 59.5151 26.0787C58.9231 25.7054 58.4698 25.2094 58.1551 24.5907C57.8458 23.9667 57.6911 23.2787 57.6911 22.5267C57.6911 21.7694 57.8458 21.0787 58.1551 20.4547C58.4698 19.8307 58.9231 19.3347 59.5151 18.9667C60.1125 18.5934 60.8298 18.4067 61.6671 18.4067C62.5098 18.4067 63.2271 18.5934 63.8191 18.9667C64.4165 19.3347 64.8698 19.8307 65.1791 20.4547C65.4938 21.0787 65.6511 21.7694 65.6511 22.5267C65.6511 23.2787 65.4938 23.9667 65.1791 24.5907C64.8698 25.2094 64.4165 25.7054 63.8191 26.0787C63.2271 26.4467 62.5098 26.6307 61.6671 26.6307ZM61.6671 25.1987C62.4031 25.1987 62.9658 24.9587 63.3551 24.4787C63.7498 23.9987 63.9471 23.348 63.9471 22.5267C63.9471 21.7 63.7498 21.044 63.3551 20.5587C62.9658 20.0734 62.4031 19.8307 61.6671 19.8307C60.9418 19.8307 60.3818 20.0734 59.9871 20.5587C59.5925 21.044 59.3951 21.7 59.3951 22.5267C59.3951 23.348 59.5925 23.9987 59.9871 24.4787C60.3818 24.9587 60.9418 25.1987 61.6671 25.1987ZM68.5825 26.4707L66.2385 18.5667H68.0385L69.4865 24.5347L71.0865 18.7667H72.6465L74.2465 24.5347L75.7025 18.5667H77.5025L75.1425 26.4707H73.5105L71.8705 20.9267L70.2225 26.4707H68.5825Z" fill="white"/>
<mask id="mask0_67_10431" style="mask-type:alpha" maskUnits="userSpaceOnUse" x="86" y="4" width="34" height="34">
<rect x="86" y="20.9707" width="24" height="24" transform="rotate(-45 86 20.9707)" fill="#D9D9D9"/>
</mask>
<g mask="url(#mask0_67_10431)">
<path d="M105.799 23.7991V18.1423H100.142L100.142 20.1222L102.405 20.1222L99.435 23.092L100.849 24.5062L103.819 21.5364L103.819 23.7991H105.799ZM110.042 28.0418C109.063 29.0199 107.959 29.7536 106.727 30.2426C105.495 30.7317 104.243 30.9763 102.971 30.9763C101.698 30.9763 100.446 30.7317 99.214 30.2426C97.9825 29.7536 96.8776 29.0199 95.8994 28.0418C94.9213 27.0636 94.1876 25.9588 93.6986 24.7272C93.2095 23.4957 92.9649 22.2435 92.9649 20.9707C92.9649 19.6979 93.2095 18.4457 93.6986 17.2142C94.1876 15.9827 94.9213 14.8778 95.8994 13.8996C96.8776 12.9215 97.9825 12.1878 99.214 11.6988C100.446 11.2097 101.698 10.9651 102.971 10.9651C104.243 10.9651 105.495 11.2097 106.727 11.6988C107.959 12.1878 109.063 12.9215 110.042 13.8996C111.02 14.8778 111.753 15.9827 112.242 17.2142C112.732 18.4457 112.976 19.6979 112.976 20.9707C112.976 22.2435 112.732 23.4957 112.242 24.7272C111.753 25.9588 111.02 27.0636 110.042 28.0418Z" fill="white"/>
</g>
</svg>
