<svg width="204" height="42" viewBox="0 0 204 42" fill="none" xmlns="http://www.w3.org/2000/svg">
<rect width="203.941" height="41.9411" rx="20.9706" fill="#0EA5E9"/>
<path d="M20.48 26.6947C20.0213 26.6947 19.5547 26.6547 19.08 26.5747C18.6107 26.5 18.176 26.404 17.776 26.2867C17.376 26.1694 17.048 26.052 16.792 25.9347L17.016 24.0787C17.3413 24.2387 17.7067 24.3934 18.112 24.5427C18.5227 24.692 18.9547 24.8174 19.408 24.9187C19.8613 25.02 20.32 25.0707 20.784 25.0707C21.4293 25.0707 21.944 24.9507 22.328 24.7107C22.712 24.4654 22.904 24.0867 22.904 23.5747C22.904 23.1907 22.8027 22.8787 22.6 22.6387C22.3973 22.3934 22.0907 22.1827 21.68 22.0067C21.2747 21.8254 20.7573 21.636 20.128 21.4387C19.5253 21.2467 18.9733 21.0227 18.472 20.7667C17.976 20.5107 17.5787 20.1774 17.28 19.7667C16.9813 19.3507 16.832 18.8094 16.832 18.1427C16.832 17.54 16.984 17.0067 17.288 16.5427C17.5973 16.0734 18.0507 15.708 18.648 15.4467C19.2453 15.18 19.984 15.0467 20.864 15.0467C21.5787 15.0467 22.2427 15.1267 22.856 15.2867C23.4747 15.4414 23.992 15.6094 24.408 15.7907L24.232 17.6147C23.6133 17.284 23.0267 17.044 22.472 16.8947C21.9227 16.7454 21.3573 16.6707 20.776 16.6707C20.1467 16.6707 19.6373 16.7827 19.248 17.0067C18.864 17.2307 18.672 17.5854 18.672 18.0707C18.672 18.4227 18.7653 18.708 18.952 18.9267C19.1387 19.14 19.4133 19.324 19.776 19.4787C20.1387 19.6334 20.5813 19.7934 21.104 19.9587C21.8987 20.1987 22.5733 20.4707 23.128 20.7747C23.6827 21.0787 24.104 21.4494 24.392 21.8867C24.6853 22.324 24.832 22.8654 24.832 23.5107C24.832 23.9267 24.7573 24.324 24.608 24.7027C24.464 25.0814 24.224 25.4227 23.888 25.7267C23.552 26.0254 23.104 26.2627 22.544 26.4387C21.9893 26.6094 21.3013 26.6947 20.48 26.6947ZM28.7098 26.6307C28.2138 26.6307 27.8111 26.5347 27.5018 26.3427C27.1978 26.1507 26.9738 25.9054 26.8298 25.6067C26.6911 25.308 26.6218 24.9934 26.6218 24.6627V19.9027H25.3658L25.5178 18.5667H26.6218V16.7027L28.2938 16.5267V18.5667H30.2298V19.9027H28.2938V23.8147C28.2938 24.2734 28.3204 24.6067 28.3738 24.8147C28.4271 25.0174 28.5578 25.1454 28.7658 25.1987C28.9738 25.252 29.3044 25.2787 29.7578 25.2787H30.2058L30.0618 26.6307H28.7098ZM33.2673 26.6307C32.8086 26.6307 32.4006 26.5347 32.0433 26.3427C31.6859 26.1454 31.4033 25.8734 31.1953 25.5267C30.9926 25.18 30.8913 24.772 30.8913 24.3027C30.8913 23.8547 30.9926 23.4734 31.1953 23.1587C31.3979 22.8387 31.6673 22.572 32.0033 22.3587C32.3393 22.1454 32.7073 21.9774 33.1073 21.8547C33.5126 21.7267 33.9233 21.6334 34.3393 21.5747C34.7553 21.516 35.1419 21.484 35.4993 21.4787C35.4939 20.8547 35.3606 20.4334 35.0993 20.2147C34.8379 19.9907 34.4406 19.8787 33.9073 19.8787C33.5873 19.8787 33.2593 19.9267 32.9233 20.0227C32.5873 20.1134 32.2086 20.2867 31.7873 20.5427L31.5953 19.1827C31.9793 18.948 32.4086 18.7614 32.8832 18.6227C33.3579 18.484 33.8486 18.4147 34.3553 18.4147C34.9899 18.4147 35.5153 18.5267 35.9313 18.7507C36.3473 18.9747 36.6593 19.3454 36.8673 19.8627C37.0753 20.38 37.1793 21.0734 37.1793 21.9427V23.7827C37.1793 24.1667 37.1953 24.468 37.2273 24.6867C37.2646 24.9 37.3419 25.052 37.4593 25.1427C37.5766 25.2334 37.7553 25.2787 37.9953 25.2787H38.1873L37.9793 26.6307H37.6113C37.2166 26.6307 36.8966 26.588 36.6513 26.5027C36.4113 26.4174 36.2166 26.2974 36.0673 26.1427C35.9179 25.9827 35.7926 25.7934 35.6913 25.5747C35.4086 25.8947 35.0566 26.1507 34.6353 26.3427C34.2193 26.5347 33.7633 26.6307 33.2673 26.6307ZM33.7793 25.3187C34.0779 25.3187 34.3846 25.244 34.6993 25.0947C35.0193 24.9454 35.2886 24.7374 35.5073 24.4707V22.6147C34.9099 22.6414 34.3953 22.7134 33.9633 22.8307C33.5366 22.9427 33.2059 23.1134 32.9713 23.3427C32.7419 23.572 32.6273 23.8654 32.6273 24.2227C32.6273 24.6067 32.7286 24.8867 32.9313 25.0627C33.1339 25.2334 33.4166 25.3187 33.7793 25.3187ZM39.2801 26.4707V18.5667H40.7521L40.8721 19.6707C41.1921 19.2867 41.5335 18.98 41.8961 18.7507C42.2641 18.5214 42.6615 18.4067 43.0881 18.4067C43.2161 18.4067 43.3361 18.42 43.4481 18.4467L43.3041 20.1827C43.2135 20.1614 43.1201 20.1454 43.0241 20.1347C42.9335 20.124 42.8375 20.1187 42.7361 20.1187C42.3521 20.1187 42.0001 20.2067 41.6801 20.3827C41.3655 20.5534 41.1415 20.748 41.0081 20.9667V26.4707H39.2801ZM47.1004 26.6307C46.6044 26.6307 46.2017 26.5347 45.8924 26.3427C45.5884 26.1507 45.3644 25.9054 45.2204 25.6067C45.0817 25.308 45.0124 24.9934 45.0124 24.6627V19.9027H43.7564L43.9084 18.5667H45.0124V16.7027L46.6844 16.5267V18.5667H48.6204V19.9027H46.6844V23.8147C46.6844 24.2734 46.711 24.6067 46.7644 24.8147C46.8177 25.0174 46.9484 25.1454 47.1564 25.1987C47.3644 25.252 47.695 25.2787 48.1484 25.2787H48.5964L48.4524 26.6307H47.1004ZM56.9956 26.6947C56.537 26.6947 56.0703 26.6547 55.5956 26.5747C55.1263 26.5 54.6916 26.404 54.2916 26.2867C53.8916 26.1694 53.5636 26.052 53.3076 25.9347L53.5316 24.0787C53.857 24.2387 54.2223 24.3934 54.6276 24.5427C55.0383 24.692 55.4703 24.8174 55.9236 24.9187C56.377 25.02 56.8356 25.0707 57.2996 25.0707C57.945 25.0707 58.4596 24.9507 58.8436 24.7107C59.2276 24.4654 59.4196 24.0867 59.4196 23.5747C59.4196 23.1907 59.3183 22.8787 59.1156 22.6387C58.913 22.3934 58.6063 22.1827 58.1956 22.0067C57.7903 21.8254 57.273 21.636 56.6436 21.4387C56.041 21.2467 55.489 21.0227 54.9876 20.7667C54.4916 20.5107 54.0943 20.1774 53.7956 19.7667C53.497 19.3507 53.3476 18.8094 53.3476 18.1427C53.3476 17.54 53.4996 17.0067 53.8036 16.5427C54.113 16.0734 54.5663 15.708 55.1636 15.4467C55.761 15.18 56.4996 15.0467 57.3796 15.0467C58.0943 15.0467 58.7583 15.1267 59.3716 15.2867C59.9903 15.4414 60.5076 15.6094 60.9236 15.7907L60.7476 17.6147C60.129 17.284 59.5423 17.044 58.9876 16.8947C58.4383 16.7454 57.873 16.6707 57.2916 16.6707C56.6623 16.6707 56.153 16.7827 55.7636 17.0067C55.3796 17.2307 55.1876 17.5854 55.1876 18.0707C55.1876 18.4227 55.281 18.708 55.4676 18.9267C55.6543 19.14 55.929 19.324 56.2916 19.4787C56.6543 19.6334 57.097 19.7934 57.6196 19.9587C58.4143 20.1987 59.089 20.4707 59.6436 20.7747C60.1983 21.0787 60.6196 21.4494 60.9076 21.8867C61.201 22.324 61.3476 22.8654 61.3476 23.5107C61.3476 23.9267 61.273 24.324 61.1236 24.7027C60.9796 25.0814 60.7396 25.4227 60.4036 25.7267C60.0676 26.0254 59.6196 26.2627 59.0596 26.4387C58.505 26.6094 57.817 26.6947 56.9956 26.6947ZM62.6704 26.4707V14.4707H64.3504V19.8387L63.8704 19.6707C64.2224 19.308 64.6037 19.0094 65.0144 18.7747C65.4304 18.5347 65.945 18.4147 66.5584 18.4147C67.2464 18.4147 67.8144 18.5694 68.2624 18.8787C68.7104 19.1827 69.0437 19.6094 69.2624 20.1587C69.481 20.708 69.5904 21.3454 69.5904 22.0707V26.4707H67.9184V22.2307C67.9184 21.4147 67.777 20.8147 67.4944 20.4307C67.2117 20.0414 66.7664 19.8467 66.1584 19.8467C65.673 19.8467 65.257 19.9694 64.9104 20.2147C64.569 20.46 64.2864 20.788 64.0624 21.1987L64.3504 20.2387V26.4707H62.6704ZM74.9328 26.6307C74.0954 26.6307 73.3781 26.4467 72.7808 26.0787C72.1888 25.7054 71.7354 25.2094 71.4208 24.5907C71.1114 23.9667 70.9568 23.2787 70.9568 22.5267C70.9568 21.7694 71.1114 21.0787 71.4208 20.4547C71.7354 19.8307 72.1888 19.3347 72.7808 18.9667C73.3781 18.5934 74.0954 18.4067 74.9328 18.4067C75.7754 18.4067 76.4928 18.5934 77.0848 18.9667C77.6821 19.3347 78.1354 19.8307 78.4448 20.4547C78.7594 21.0787 78.9167 21.7694 78.9167 22.5267C78.9167 23.2787 78.7594 23.9667 78.4448 24.5907C78.1354 25.2094 77.6821 25.7054 77.0848 26.0787C76.4928 26.4467 75.7754 26.6307 74.9328 26.6307ZM74.9328 25.1987C75.6688 25.1987 76.2314 24.9587 76.6208 24.4787C77.0154 23.9987 77.2128 23.348 77.2128 22.5267C77.2128 21.7 77.0154 21.044 76.6208 20.5587C76.2314 20.0734 75.6688 19.8307 74.9328 19.8307C74.2074 19.8307 73.6474 20.0734 73.2528 20.5587C72.8581 21.044 72.6608 21.7 72.6608 22.5267C72.6608 23.348 72.8581 23.9987 73.2528 24.4787C73.6474 24.9587 74.2074 25.1987 74.9328 25.1987ZM80.3583 30.3427V18.5667H81.6863L81.9983 20.1587L81.5182 19.9027C81.8596 19.4494 82.2623 19.0894 82.7263 18.8227C83.1903 18.5507 83.7583 18.4147 84.4303 18.4147C85.1716 18.4147 85.8036 18.6014 86.3263 18.9747C86.8489 19.3427 87.2463 19.8387 87.5183 20.4627C87.7903 21.0814 87.9263 21.7694 87.9263 22.5267C87.9263 23.2787 87.7929 23.9667 87.5263 24.5907C87.2649 25.2094 86.8756 25.7054 86.3583 26.0787C85.8409 26.4467 85.1983 26.6307 84.4303 26.6307C83.8063 26.6307 83.2649 26.5214 82.8063 26.3027C82.3529 26.0787 81.9769 25.7374 81.6783 25.2787L82.0303 24.9507V30.3427H80.3583ZM84.1423 25.1987C84.7929 25.1987 85.2996 24.9587 85.6623 24.4787C86.0303 23.9987 86.2143 23.348 86.2143 22.5267C86.2143 21.7 86.0303 21.0467 85.6623 20.5667C85.2996 20.0867 84.7929 19.8467 84.1423 19.8467C83.6996 19.8467 83.3129 19.9507 82.9823 20.1587C82.6569 20.3667 82.4009 20.6707 82.2143 21.0707C82.0329 21.4654 81.9423 21.9507 81.9423 22.5267C81.9423 23.1134 82.0329 23.604 82.2143 23.9987C82.4009 24.3934 82.6569 24.692 82.9823 24.8947C83.3129 25.0974 83.6996 25.1987 84.1423 25.1987ZM89.3739 30.3427V18.5667H90.7019L91.0139 20.1587L90.5339 19.9027C90.8752 19.4494 91.2779 19.0894 91.7419 18.8227C92.2059 18.5507 92.7739 18.4147 93.4459 18.4147C94.1872 18.4147 94.8192 18.6014 95.3419 18.9747C95.8645 19.3427 96.2619 19.8387 96.5339 20.4627C96.8059 21.0814 96.9419 21.7694 96.9419 22.5267C96.9419 23.2787 96.8085 23.9667 96.5419 24.5907C96.2805 25.2094 95.8912 25.7054 95.3739 26.0787C94.8565 26.4467 94.2139 26.6307 93.4459 26.6307C92.8219 26.6307 92.2805 26.5214 91.8219 26.3027C91.3685 26.0787 90.9925 25.7374 90.6939 25.2787L91.0459 24.9507V30.3427H89.3739ZM93.1579 25.1987C93.8085 25.1987 94.3152 24.9587 94.6779 24.4787C95.0459 23.9987 95.2299 23.348 95.2299 22.5267C95.2299 21.7 95.0459 21.0467 94.6779 20.5667C94.3152 20.0867 93.8085 19.8467 93.1579 19.8467C92.7152 19.8467 92.3285 19.9507 91.9979 20.1587C91.6725 20.3667 91.4165 20.6707 91.2299 21.0707C91.0485 21.4654 90.9579 21.9507 90.9579 22.5267C90.9579 23.1134 91.0485 23.604 91.2299 23.9987C91.4165 24.3934 91.6725 24.692 91.9979 24.8947C92.3285 25.0974 92.7152 25.1987 93.1579 25.1987ZM98.3895 26.4707V18.5667H100.062V26.4707H98.3895ZM98.3895 17.0307V15.2707H100.062V17.0307H98.3895ZM101.968 26.4707V18.5667H103.4L103.6 20.0627L103.088 19.6627C103.52 19.2147 103.97 18.8947 104.44 18.7027C104.909 18.5107 105.4 18.4147 105.912 18.4147C107.005 18.4147 107.8 18.7507 108.296 19.4227C108.792 20.0894 109.04 20.9774 109.04 22.0867V26.4707H107.368V22.1587C107.368 21.364 107.226 20.78 106.944 20.4067C106.661 20.0334 106.184 19.8467 105.512 19.8467C105.016 19.8467 104.578 19.9614 104.2 20.1907C103.826 20.4147 103.554 20.7507 103.384 21.1987L103.64 20.2787V26.4707H101.968ZM114.026 30.4867C113.301 30.4867 112.658 30.396 112.098 30.2147C111.538 30.0334 111.098 29.7694 110.778 29.4227C110.464 29.0814 110.306 28.6627 110.306 28.1667C110.306 27.7507 110.424 27.388 110.658 27.0787C110.893 26.7747 111.221 26.5187 111.642 26.3107C111.408 26.1827 111.224 26.0307 111.09 25.8547C110.962 25.6734 110.898 25.4734 110.898 25.2547C110.898 25.0094 110.97 24.7907 111.114 24.5987C111.264 24.4067 111.485 24.2494 111.778 24.1267C111.352 23.8494 111.026 23.4814 110.802 23.0227C110.578 22.564 110.466 22.06 110.466 21.5107C110.466 20.94 110.592 20.42 110.842 19.9507C111.098 19.476 111.466 19.1 111.946 18.8227C112.432 18.5454 113.018 18.4067 113.706 18.4067C114.069 18.4067 114.408 18.4574 114.722 18.5587C115.042 18.6547 115.33 18.7907 115.586 18.9667C115.794 18.8494 116.056 18.7507 116.37 18.6707C116.69 18.5854 117.045 18.5427 117.434 18.5427C117.488 18.5427 117.538 18.5427 117.586 18.5427C117.634 18.5427 117.682 18.5427 117.73 18.5427L117.57 19.6227C117.485 19.6227 117.4 19.6227 117.314 19.6227C117.229 19.6227 117.144 19.6227 117.058 19.6227C117.005 19.6227 116.906 19.628 116.762 19.6387C116.618 19.6494 116.48 19.668 116.346 19.6947C116.544 19.9507 116.693 20.2334 116.794 20.5427C116.896 20.852 116.946 21.1747 116.946 21.5107C116.946 22.1027 116.818 22.636 116.562 23.1107C116.312 23.5854 115.944 23.964 115.458 24.2467C114.978 24.5294 114.394 24.6707 113.706 24.6707C113.536 24.6707 113.368 24.66 113.202 24.6387C113.042 24.612 112.888 24.58 112.738 24.5427C112.546 24.6067 112.45 24.7214 112.45 24.8867C112.45 25.0147 112.528 25.1214 112.682 25.2067C112.837 25.2867 113.082 25.3534 113.418 25.4067L115.21 25.6707C116.064 25.7987 116.725 26.044 117.194 26.4067C117.669 26.7694 117.906 27.2867 117.906 27.9587C117.906 28.4974 117.749 28.9534 117.434 29.3267C117.125 29.7054 116.68 29.9934 116.098 30.1907C115.517 30.388 114.826 30.4867 114.026 30.4867ZM114.138 29.1107C114.848 29.1107 115.389 29.02 115.762 28.8387C116.136 28.6627 116.322 28.396 116.322 28.0387C116.322 27.74 116.2 27.5134 115.954 27.3587C115.709 27.204 115.341 27.084 114.85 26.9987L112.818 26.6787C112.541 26.796 112.301 26.9534 112.098 27.1507C111.901 27.3534 111.802 27.5987 111.802 27.8867C111.802 28.308 112.01 28.6174 112.426 28.8147C112.848 29.012 113.418 29.1107 114.138 29.1107ZM113.706 23.3827C114.261 23.3827 114.68 23.212 114.962 22.8707C115.25 22.524 115.394 22.0734 115.394 21.5187C115.394 20.9747 115.25 20.5347 114.962 20.1987C114.68 19.8574 114.261 19.6867 113.706 19.6867C113.152 19.6867 112.73 19.8574 112.442 20.1987C112.16 20.5347 112.018 20.9747 112.018 21.5187C112.018 22.0734 112.16 22.524 112.442 22.8707C112.73 23.212 113.152 23.3827 113.706 23.3827ZM122.74 26.4707V15.2707H124.548L129.756 23.1667V15.2707H131.508V26.4707H130.052L124.484 18.1187V26.4707H122.74ZM137.011 26.6307C136.174 26.6307 135.456 26.4467 134.859 26.0787C134.267 25.7054 133.814 25.2094 133.499 24.5907C133.19 23.9667 133.035 23.2787 133.035 22.5267C133.035 21.7694 133.19 21.0787 133.499 20.4547C133.814 19.8307 134.267 19.3347 134.859 18.9667C135.456 18.5934 136.174 18.4067 137.011 18.4067C137.854 18.4067 138.571 18.5934 139.163 18.9667C139.76 19.3347 140.214 19.8307 140.523 20.4547C140.838 21.0787 140.995 21.7694 140.995 22.5267C140.995 23.2787 140.838 23.9667 140.523 24.5907C140.214 25.2094 139.76 25.7054 139.163 26.0787C138.571 26.4467 137.854 26.6307 137.011 26.6307ZM137.011 25.1987C137.747 25.1987 138.31 24.9587 138.699 24.4787C139.094 23.9987 139.291 23.348 139.291 22.5267C139.291 21.7 139.094 21.044 138.699 20.5587C138.31 20.0734 137.747 19.8307 137.011 19.8307C136.286 19.8307 135.726 20.0734 135.331 20.5587C134.936 21.044 134.739 21.7 134.739 22.5267C134.739 23.348 134.936 23.9987 135.331 24.4787C135.726 24.9587 136.286 25.1987 137.011 25.1987ZM143.926 26.4707L141.582 18.5667H143.382L144.83 24.5347L146.43 18.7667H147.99L149.59 24.5347L151.046 18.5667H152.846L150.486 26.4707H148.854L147.214 20.9267L145.566 26.4707H143.926Z" fill="white"/>
<mask id="mask0_67_10537" style="mask-type:alpha" maskUnits="userSpaceOnUse" x="162" y="4" width="34" height="34">
<rect x="162" y="20.9707" width="24" height="24" transform="rotate(-45 162 20.9707)" fill="#D9D9D9"/>
</mask>
<g mask="url(#mask0_67_10537)">
<path d="M181.799 23.7991V18.1423H176.142L176.142 20.1222L178.405 20.1222L175.435 23.092L176.849 24.5062L179.819 21.5364L179.819 23.7991H181.799ZM186.042 28.0418C185.063 29.0199 183.959 29.7536 182.727 30.2426C181.495 30.7317 180.243 30.9763 178.971 30.9763C177.698 30.9763 176.446 30.7317 175.214 30.2426C173.982 29.7536 172.878 29.0199 171.899 28.0418C170.921 27.0636 170.188 25.9588 169.699 24.7272C169.209 23.4957 168.965 22.2435 168.965 20.9707C168.965 19.6979 169.209 18.4457 169.699 17.2142C170.188 15.9827 170.921 14.8778 171.899 13.8996C172.878 12.9215 173.982 12.1878 175.214 11.6988C176.446 11.2097 177.698 10.9651 178.971 10.9651C180.243 10.9651 181.495 11.2097 182.727 11.6988C183.959 12.1878 185.063 12.9215 186.042 13.8996C187.02 14.8778 187.753 15.9827 188.242 17.2142C188.732 18.4457 188.976 19.6979 188.976 20.9707C188.976 22.2435 188.732 23.4957 188.242 24.7272C187.753 25.9588 187.02 27.0636 186.042 28.0418Z" fill="white"/>
</g>
</svg>
