<svg width="132" height="43" viewBox="0 0 132 43" fill="none" xmlns="http://www.w3.org/2000/svg">
<rect y="0.529297" width="132" height="41.9411" rx="8" fill="#0EA5E9"/>
<path d="M18.04 27L14.04 15.8H15.832L19.128 25.136H18.688L21.984 15.8H23.784L19.784 27H18.04ZM25.1551 27V19.096H26.8271V27H25.1551ZM25.1551 17.56V15.8H26.8271V17.56H25.1551ZM32.5413 27.16C31.5973 27.16 30.8079 26.9707 30.1733 26.592C29.5386 26.208 29.0586 25.7013 28.7333 25.072C28.4133 24.4373 28.2533 23.744 28.2533 22.992C28.2533 22.2613 28.4026 21.5893 28.7013 20.976C29.0053 20.3627 29.4453 19.872 30.0213 19.504C30.6026 19.1307 31.3039 18.944 32.1253 18.944C32.8239 18.944 33.4293 19.0853 33.9413 19.368C34.4533 19.6507 34.8453 20.0453 35.1173 20.552C35.3946 21.0587 35.5333 21.6507 35.5333 22.328C35.5333 22.4667 35.5253 22.6107 35.5093 22.76C35.4986 22.9093 35.4773 23.0667 35.4453 23.232H29.9813C30.0506 23.856 30.2159 24.352 30.4773 24.72C30.7386 25.0827 31.0639 25.3413 31.4533 25.496C31.8426 25.6507 32.2639 25.728 32.7173 25.728C33.1226 25.728 33.5226 25.6827 33.9173 25.592C34.3119 25.496 34.6826 25.36 35.0293 25.184L35.1813 26.552C34.8773 26.696 34.5039 26.8347 34.0613 26.968C33.6186 27.096 33.1119 27.16 32.5413 27.16ZM30.0773 22.088H33.8213C33.8213 21.7733 33.7626 21.488 33.6453 21.232C33.5279 20.9707 33.3413 20.7627 33.0853 20.608C32.8346 20.4533 32.5093 20.376 32.1093 20.376C31.5226 20.376 31.0666 20.5307 30.7413 20.84C30.4213 21.1493 30.1999 21.5653 30.0773 22.088ZM38.52 27L36.176 19.096H37.976L39.424 25.064L41.024 19.296H42.584L44.184 25.064L45.64 19.096H47.44L45.08 27H43.448L41.808 21.456L40.16 27H38.52ZM52.4591 27V15.8H56.2911C57.3258 15.8 58.1178 16.0293 58.6671 16.488C59.2218 16.9413 59.4991 17.6187 59.4991 18.52C59.4991 19.16 59.3578 19.7093 59.0751 20.168C58.7925 20.6267 58.3685 20.9413 57.8031 21.112L57.9391 20.8C58.7658 20.9547 59.3951 21.2827 59.8271 21.784C60.2591 22.2853 60.4751 22.96 60.4751 23.808C60.4751 24.8 60.1551 25.5813 59.5151 26.152C58.8751 26.7173 57.9951 27 56.8751 27H52.4591ZM54.2031 25.432H56.6751C57.2671 25.432 57.7391 25.296 58.0911 25.024C58.4485 24.7467 58.6271 24.3013 58.6271 23.688C58.6271 23.0213 58.4431 22.56 58.0751 22.304C57.7125 22.0427 57.2458 21.912 56.6751 21.912H54.2031V25.432ZM54.2031 20.344H56.0511C56.5738 20.344 56.9845 20.24 57.2831 20.032C57.5871 19.8187 57.7391 19.4267 57.7391 18.856C57.7391 18.28 57.5871 17.888 57.2831 17.68C56.9845 17.4667 56.5738 17.36 56.0511 17.36H54.2031V20.344ZM63.8434 27.16C63.3527 27.16 62.958 27.0667 62.6594 26.88C62.3607 26.6933 62.142 26.4507 62.0034 26.152C61.87 25.848 61.8034 25.5253 61.8034 25.184V15H63.4754V24.36C63.4754 24.7973 63.502 25.12 63.5554 25.328C63.614 25.5307 63.7234 25.6613 63.8834 25.72C64.0487 25.7787 64.2914 25.808 64.6114 25.808L64.4194 27.16H63.8434ZM69.1984 27.16C68.361 27.16 67.6437 26.976 67.0464 26.608C66.4544 26.2347 66.001 25.7387 65.6864 25.12C65.377 24.496 65.2224 23.808 65.2224 23.056C65.2224 22.2987 65.377 21.608 65.6864 20.984C66.001 20.36 66.4544 19.864 67.0464 19.496C67.6437 19.1227 68.361 18.936 69.1984 18.936C70.041 18.936 70.7584 19.1227 71.3504 19.496C71.9477 19.864 72.401 20.36 72.7104 20.984C73.025 21.608 73.1824 22.2987 73.1824 23.056C73.1824 23.808 73.025 24.496 72.7104 25.12C72.401 25.7387 71.9477 26.2347 71.3504 26.608C70.7584 26.976 70.041 27.16 69.1984 27.16ZM69.1984 25.728C69.9344 25.728 70.497 25.488 70.8864 25.008C71.281 24.528 71.4784 23.8773 71.4784 23.056C71.4784 22.2293 71.281 21.5733 70.8864 21.088C70.497 20.6027 69.9344 20.36 69.1984 20.36C68.473 20.36 67.913 20.6027 67.5184 21.088C67.1237 21.5733 66.9264 22.2293 66.9264 23.056C66.9264 23.8773 67.1237 24.528 67.5184 25.008C67.913 25.488 68.473 25.728 69.1984 25.728ZM77.7919 31.016C77.0665 31.016 76.4239 30.9253 75.8639 30.744C75.3039 30.5627 74.8639 30.2987 74.5439 29.952C74.2292 29.6107 74.0719 29.192 74.0719 28.696C74.0719 28.28 74.1892 27.9173 74.4239 27.608C74.6585 27.304 74.9865 27.048 75.4079 26.84C75.1732 26.712 74.9892 26.56 74.8559 26.384C74.7279 26.2027 74.6639 26.0027 74.6639 25.784C74.6639 25.5387 74.7359 25.32 74.8799 25.128C75.0292 24.936 75.2505 24.7787 75.5439 24.656C75.1172 24.3787 74.7919 24.0107 74.5679 23.552C74.3439 23.0933 74.2319 22.5893 74.2319 22.04C74.2319 21.4693 74.3572 20.9493 74.6079 20.48C74.8639 20.0053 75.2319 19.6293 75.7119 19.352C76.1972 19.0747 76.7839 18.936 77.4719 18.936C77.8345 18.936 78.1732 18.9867 78.4879 19.088C78.8079 19.184 79.0959 19.32 79.3519 19.496C79.5599 19.3787 79.8212 19.28 80.1359 19.2C80.4559 19.1147 80.8105 19.072 81.1999 19.072C81.2532 19.072 81.3039 19.072 81.3519 19.072C81.3999 19.072 81.4479 19.072 81.4959 19.072L81.3359 20.152C81.2505 20.152 81.1652 20.152 81.0799 20.152C80.9945 20.152 80.9092 20.152 80.8239 20.152C80.7705 20.152 80.6719 20.1573 80.5279 20.168C80.3839 20.1787 80.2452 20.1973 80.1119 20.224C80.3092 20.48 80.4585 20.7627 80.5599 21.072C80.6612 21.3813 80.7119 21.704 80.7119 22.04C80.7119 22.632 80.5839 23.1653 80.3279 23.64C80.0772 24.1147 79.7092 24.4933 79.2239 24.776C78.7439 25.0587 78.1599 25.2 77.4719 25.2C77.3012 25.2 77.1332 25.1893 76.9679 25.168C76.8079 25.1413 76.6532 25.1093 76.5039 25.072C76.3119 25.136 76.2159 25.2507 76.2159 25.416C76.2159 25.544 76.2932 25.6507 76.4479 25.736C76.6025 25.816 76.8479 25.8827 77.1839 25.936L78.9759 26.2C79.8292 26.328 80.4905 26.5733 80.9599 26.936C81.4345 27.2987 81.6719 27.816 81.6719 28.488C81.6719 29.0267 81.5145 29.4827 81.1999 29.856C80.8905 30.2347 80.4452 30.5227 79.8639 30.72C79.2825 30.9173 78.5919 31.016 77.7919 31.016ZM77.9039 29.64C78.6132 29.64 79.1545 29.5493 79.5279 29.368C79.9012 29.192 80.0879 28.9253 80.0879 28.568C80.0879 28.2693 79.9652 28.0427 79.7199 27.888C79.4745 27.7333 79.1065 27.6133 78.6159 27.528L76.5839 27.208C76.3065 27.3253 76.0665 27.4827 75.8639 27.68C75.6665 27.8827 75.5679 28.128 75.5679 28.416C75.5679 28.8373 75.7759 29.1467 76.1919 29.344C76.6132 29.5413 77.1839 29.64 77.9039 29.64ZM77.4719 23.912C78.0265 23.912 78.4452 23.7413 78.7279 23.4C79.0159 23.0533 79.1599 22.6027 79.1599 22.048C79.1599 21.504 79.0159 21.064 78.7279 20.728C78.4452 20.3867 78.0265 20.216 77.4719 20.216C76.9172 20.216 76.4959 20.3867 76.2079 20.728C75.9252 21.064 75.7839 21.504 75.7839 22.048C75.7839 22.6027 75.9252 23.0533 76.2079 23.4C76.4959 23.7413 76.9172 23.912 77.4719 23.912Z" fill="white"/>
<mask id="mask0_67_10611" style="mask-type:alpha" maskUnits="userSpaceOnUse" x="98" y="4" width="34" height="35">
<rect x="98" y="21.5" width="24" height="24" transform="rotate(-45 98 21.5)" fill="#D9D9D9"/>
</mask>
<g mask="url(#mask0_67_10611)">
<path d="M117.799 24.3284V18.6716H112.142L112.142 20.6515L114.405 20.6515L111.435 23.6213L112.849 25.0355L115.819 22.0657L115.819 24.3284H117.799ZM122.042 28.5711C121.063 29.5492 119.959 30.2829 118.727 30.7719C117.495 31.261 116.243 31.5056 114.971 31.5056C113.698 31.5056 112.446 31.261 111.214 30.7719C109.982 30.2829 108.878 29.5492 107.899 28.5711C106.921 27.5929 106.188 26.488 105.699 25.2565C105.209 24.025 104.965 22.7728 104.965 21.5C104.965 20.2272 105.209 18.975 105.699 17.7435C106.188 16.512 106.921 15.4071 107.899 14.4289C108.878 13.4508 109.982 12.7171 111.214 12.2281C112.446 11.739 113.698 11.4944 114.971 11.4944C116.243 11.4944 117.495 11.739 118.727 12.2281C119.959 12.7171 121.063 13.4508 122.042 14.4289C123.02 15.4071 123.753 16.512 124.242 17.7435C124.732 18.975 124.976 20.2272 124.976 21.5C124.976 22.7728 124.732 24.025 124.242 25.2565C123.753 26.488 123.02 27.5929 122.042 28.5711Z" fill="white"/>
</g>
</svg>
