<svg width="141" height="142" viewBox="0 0 141 142" fill="none" xmlns="http://www.w3.org/2000/svg">
<path d="M17.9165 71.0001C17.9165 77.9274 19.2809 84.7868 21.9319 91.1867C24.5828 97.5867 28.4684 103.402 33.3667 108.3C38.265 113.198 44.0801 117.084 50.48 119.735C56.88 122.386 63.7394 123.75 70.6666 123.75C77.5939 123.75 84.4533 122.386 90.8532 119.735C97.2532 117.084 103.068 113.198 107.967 108.3C112.865 103.402 116.75 97.5867 119.401 91.1867C122.052 84.7868 123.417 77.9274 123.417 71.0001C123.417 64.0729 122.052 57.2135 119.401 50.8135C116.75 44.4136 112.865 38.5985 107.967 33.7002C103.068 28.8019 97.2532 24.9163 90.8532 22.2654C84.4533 19.6144 77.5939 18.25 70.6666 18.25C63.7394 18.25 56.88 19.6144 50.48 22.2654C44.0801 24.9163 38.265 28.8019 33.3667 33.7002C28.4684 38.5985 24.5828 44.4136 21.9319 50.8135C19.2809 57.2135 17.9165 64.0729 17.9165 71.0001Z" stroke="black" stroke-width="11.7222" stroke-linecap="round" stroke-linejoin="round"/>
<path d="M53.0833 59.2787C53.0833 63.9421 54.9358 68.4145 58.2333 71.712C61.5308 75.0095 66.0032 76.8621 70.6666 76.8621C75.33 76.8621 79.8024 75.0095 83.1 71.712C86.3975 68.4145 88.25 63.9421 88.25 59.2787C88.25 54.6153 86.3975 50.1429 83.1 46.8454C79.8024 43.5478 75.33 41.6953 70.6666 41.6953C66.0032 41.6953 61.5308 43.5478 58.2333 46.8454C54.9358 50.1429 53.0833 54.6153 53.0833 59.2787Z" stroke="black" stroke-width="11.7222" stroke-linecap="round" stroke-linejoin="round"/>
<path d="M36.4844 111.144C37.9351 106.315 40.9035 102.083 44.9493 99.0755C48.9951 96.0675 53.9027 94.4438 58.9442 94.4453H82.3887C87.4366 94.4436 92.3503 96.0712 96.3991 99.0861C100.448 102.101 103.415 106.342 104.86 111.179" stroke="black" stroke-width="11.7222" stroke-linecap="round" stroke-linejoin="round"/>
</svg>
