<svg width="153" height="152" viewBox="0 0 153 152" fill="none" xmlns="http://www.w3.org/2000/svg">
<path d="M127 37.9987V113.999C127 117.358 125.666 120.58 123.29 122.955C120.915 125.331 117.693 126.665 114.333 126.665H51.0002C47.6408 126.665 44.4189 125.331 42.0435 122.955C39.668 120.58 38.3335 117.358 38.3335 113.999V37.9987C38.3335 34.6393 39.668 31.4175 42.0435 29.042C44.4189 26.6666 47.6408 25.332 51.0002 25.332H114.333C117.693 25.332 120.915 26.6666 123.29 29.042C125.666 31.4175 127 34.6393 127 37.9987Z" stroke="black" stroke-width="12.6667" stroke-linecap="round" stroke-linejoin="round"/>
<path d="M63.6667 101.332H101.667" stroke="black" stroke-width="12.6667" stroke-linecap="round" stroke-linejoin="round"/>
<path d="M70.0002 69.6667C70.0002 73.0261 71.3348 76.2479 73.7102 78.6234C76.0857 80.9988 79.3075 82.3333 82.6669 82.3333C86.0263 82.3333 89.2481 80.9988 91.6236 78.6234C93.9991 76.2479 95.3336 73.0261 95.3336 69.6667C95.3336 66.3073 93.9991 63.0854 91.6236 60.71C89.2481 58.3345 86.0263 57 82.6669 57C79.3075 57 76.0857 58.3345 73.7102 60.71C71.3348 63.0854 70.0002 66.3073 70.0002 69.6667Z" stroke="black" stroke-width="12.6667" stroke-linecap="round" stroke-linejoin="round"/>
<path d="M25.6667 50.668H44.6667" stroke="black" stroke-width="12.6667" stroke-linecap="round" stroke-linejoin="round"/>
<path d="M25.6667 76H44.6667" stroke="black" stroke-width="12.6667" stroke-linecap="round" stroke-linejoin="round"/>
<path d="M25.6667 101.332H44.6667" stroke="black" stroke-width="12.6667" stroke-linecap="round" stroke-linejoin="round"/>
</svg>
