<svg width="141" height="140" viewBox="0 0 141 140" fill="none" xmlns="http://www.w3.org/2000/svg">
<path d="M111.5 104.996C116.915 104.996 122.108 102.845 125.937 99.0162C129.766 95.1873 131.917 89.9943 131.917 84.5794C131.917 79.1646 129.766 73.9715 125.937 70.1427C122.108 66.3138 116.915 64.1628 111.5 64.1628H105.667C106.518 60.3708 106.531 56.4652 105.705 52.6687C104.879 48.8723 103.23 45.2595 100.853 42.0365C98.4754 38.8135 95.416 36.0436 91.8492 33.8847C88.2824 31.7259 84.2781 30.2205 80.0648 29.4544C75.8516 28.6884 71.512 28.6767 67.2937 29.4201C63.0754 30.1635 59.0612 31.6473 55.4801 33.7869C48.2478 38.1081 43.219 44.838 41.5 52.4961C35.2814 52.247 29.1657 54.0734 24.1999 57.6627C19.2342 61.2519 15.7273 66.3807 14.2798 72.1709C12.8322 77.9611 13.534 84.0526 16.265 89.4023C18.996 94.752 23.5863 99.0273 29.25 101.496" stroke="black" stroke-width="11.6667" stroke-linecap="round" stroke-linejoin="round"/>
<path d="M70.6665 75.832V128.332" stroke="black" stroke-width="11.6667" stroke-linecap="round" stroke-linejoin="round"/>
<path d="M53.1665 110.832L70.6665 128.332L88.1665 110.832" stroke="black" stroke-width="11.6667" stroke-linecap="round" stroke-linejoin="round"/>
</svg>
