<svg width="121" height="120" viewBox="0 0 121 120" fill="none" xmlns="http://www.w3.org/2000/svg">
<path d="M50.3335 40V30C50.3335 27.3478 51.3871 24.8043 53.2624 22.9289C55.1378 21.0536 57.6813 20 60.3335 20H95.3335C97.9857 20 100.529 21.0536 102.405 22.9289C104.28 24.8043 105.333 27.3478 105.333 30V90C105.333 92.6522 104.28 95.1957 102.405 97.0711C100.529 98.9464 97.9857 100 95.3335 100H60.3335C57.6813 100 55.1378 98.9464 53.2624 97.0711C51.3871 95.1957 50.3335 92.6522 50.3335 90V80" stroke="black" stroke-width="10" stroke-linecap="round" stroke-linejoin="round"/>
<path d="M75.3335 60H15.3335L30.3335 45" stroke="black" stroke-width="10" stroke-linecap="round" stroke-linejoin="round"/>
<path d="M30.3335 75L15.3335 60" stroke="black" stroke-width="10" stroke-linecap="round" stroke-linejoin="round"/>
</svg>
