<svg width="154" height="154" viewBox="0 0 154 154" fill="none" xmlns="http://www.w3.org/2000/svg">
<path d="M19.25 57.7487C19.25 56.0469 19.926 54.4148 21.1294 53.2114C22.3328 52.0081 23.9649 51.332 25.6667 51.332H128.333C130.035 51.332 131.667 52.0081 132.871 53.2114C134.074 54.4148 134.75 56.0469 134.75 57.7487V70.582C134.75 72.2838 134.074 73.9159 132.871 75.1193C131.667 76.3227 130.035 76.9987 128.333 76.9987H25.6667C23.9649 76.9987 22.3328 76.3227 21.1294 75.1193C19.926 73.9159 19.25 72.2838 19.25 70.582V57.7487Z" stroke="black" stroke-width="12.8333" stroke-linecap="round" stroke-linejoin="round"/>
<path d="M77 51.332V134.749" stroke="black" stroke-width="12.8333" stroke-linecap="round" stroke-linejoin="round"/>
<path d="M121.917 77V121.917C121.917 125.32 120.565 128.584 118.158 130.991C115.751 133.398 112.487 134.75 109.083 134.75H44.9167C41.5131 134.75 38.2489 133.398 35.8422 130.991C33.4355 128.584 32.0834 125.32 32.0834 121.917V77" stroke="black" stroke-width="12.8333" stroke-linecap="round" stroke-linejoin="round"/>
<path d="M48.125 51.3361C43.8705 51.3361 39.7903 49.646 36.7819 46.6376C33.7735 43.6292 32.0834 39.549 32.0834 35.2945C32.0834 31.04 33.7735 26.9597 36.7819 23.9513C39.7903 20.9429 43.8705 19.2528 48.125 19.2528C54.3151 19.145 60.381 22.1484 65.5318 27.8714C70.6825 33.5945 74.679 41.7715 77 51.3361C79.3211 41.7715 83.3176 33.5945 88.4683 27.8714C93.619 22.1484 99.685 19.145 105.875 19.2528C110.13 19.2528 114.21 20.9429 117.218 23.9513C120.227 26.9597 121.917 31.04 121.917 35.2945C121.917 39.549 120.227 43.6292 117.218 46.6376C114.21 49.646 110.13 51.3361 105.875 51.3361" stroke="black" stroke-width="12.8333" stroke-linecap="round" stroke-linejoin="round"/>
</svg>
