<svg width="21" height="20" viewBox="0 0 21 20" fill="none" xmlns="http://www.w3.org/2000/svg">
<path fill-rule="evenodd" clip-rule="evenodd" d="M2.58333 0.833984C2.1231 0.833984 1.75 1.20708 1.75 1.66732C1.75 2.12755 2.1231 2.50065 2.58333 2.50065C3.19035 2.50065 3.72066 2.94172 3.82984 3.56232L4.40141 6.81123L4.40192 6.8141L4.76813 8.86071C4.99716 10.1408 5.18006 11.163 5.4113 11.975C5.64977 12.8124 5.95884 13.5014 6.48376 14.0837C6.8443 14.4836 7.26614 14.826 7.73364 15.0992C8.41088 15.495 9.15747 15.6693 10.0451 15.7527C10.9099 15.834 11.9817 15.834 13.3319 15.834H13.7424C14.3429 15.834 14.838 15.834 15.2459 15.8043C15.6708 15.7734 16.0575 15.7075 16.4327 15.5475C16.9799 15.3143 17.4591 14.9476 17.8221 14.4797C18.0727 14.1566 18.2291 13.8004 18.3574 13.4025C18.4798 13.0228 18.5915 12.5548 18.7256 11.9925L18.7425 11.9216C18.9465 11.0669 19.1131 10.3686 19.1937 9.79837C19.2767 9.21165 19.2858 8.65981 19.0969 8.12791C18.8313 7.38016 18.3086 6.75064 17.6246 6.34053C17.1428 6.05163 16.598 5.93859 15.9935 5.88565C15.4033 5.83397 14.6638 5.83397 13.7512 5.83398H5.92175L5.4713 3.27355C5.22412 1.86852 4.01195 0.833984 2.58333 0.833984ZM13.7122 7.50065C14.673 7.50065 15.3393 7.5014 15.8481 7.54596C16.351 7.59001 16.6024 7.67092 16.7676 7.76994C17.128 7.98605 17.3934 8.31142 17.5264 8.68574C17.5843 8.84893 17.6108 9.08904 17.5435 9.5649C17.4751 10.0484 17.3276 10.6703 17.1118 11.5749C16.9684 12.1759 16.8713 12.5805 16.7711 12.8911C16.6746 13.1905 16.5921 13.3461 16.5052 13.4581C16.3193 13.6978 16.07 13.8904 15.7791 14.0144C15.639 14.0741 15.455 14.118 15.1249 14.1421C14.7847 14.1668 14.3504 14.1673 13.7122 14.1673H13.374C11.9724 14.1673 10.9788 14.1665 10.2011 14.0934C9.43732 14.0216 8.95978 13.8854 8.5746 13.6603C8.25362 13.4727 7.96605 13.2388 7.72168 12.9677C7.43152 12.6459 7.21522 12.2242 7.01424 11.5185C6.80866 10.7966 6.63956 9.85716 6.40092 8.52347L6.2179 7.50065H13.7122Z" fill="#475367"/>
<path d="M9.25 17.2923C9.25 17.8676 8.78363 18.334 8.20833 18.334C7.63304 18.334 7.16667 17.8676 7.16667 17.2923C7.16667 16.717 7.63304 16.2507 8.20833 16.2507C8.78363 16.2507 9.25 16.717 9.25 17.2923Z" fill="#475367"/>
<path d="M15.7083 18.334C16.2836 18.334 16.75 17.8676 16.75 17.2923C16.75 16.717 16.2836 16.2507 15.7083 16.2507C15.133 16.2507 14.6667 16.717 14.6667 17.2923C14.6667 17.8676 15.133 18.334 15.7083 18.334Z" fill="#475367"/>
</svg>