<svg width="34" height="33" viewBox="0 0 34 33" fill="none" xmlns="http://www.w3.org/2000/svg">
<path fill-rule="evenodd" clip-rule="evenodd" d="M16.6002 3.16406L7.96813 3.68463C5.91236 3.80861 4.09858 5.02531 3.26202 6.84151L2.50768 8.47924C1.69401 10.2457 1.93469 12.2988 3.13674 13.8453L3.49366 14.3045L3.98535 24.7422C4.11953 27.5906 6.55188 29.8333 9.50692 29.8333H23.6934C26.6484 29.8333 29.0808 27.5906 29.215 24.7422L29.6977 14.4954C31.0123 13.3096 31.4967 11.4598 30.8656 9.78536L29.8811 7.17284C29.1298 5.17927 27.2255 3.80485 25.0314 3.67252L16.6002 3.16406ZM6.74614 24.6211L6.32769 15.7383C7.51134 15.8728 8.73307 15.6076 9.76666 14.9427L9.91018 14.8504C10.6906 14.3484 11.6899 14.2884 12.5288 14.6931L14.1283 15.4648C15.6844 16.2155 17.516 16.2155 19.072 15.4648L20.6716 14.6931C21.5105 14.2884 22.5098 14.3484 23.2901 14.8504L23.4337 14.9427C24.4673 15.6076 25.689 15.8728 26.8726 15.7383L26.4542 24.6211C26.3871 26.0453 25.1709 27.1667 23.6934 27.1667H20.8656L21.1449 23.9325C21.3664 21.367 19.2682 19.1667 16.6002 19.1667C13.9321 19.1667 11.8339 21.367 12.0555 23.9325L12.3348 27.1667H9.50692C8.02941 27.1667 6.81323 26.0453 6.74614 24.6211ZM24.9667 12.7239C25.7576 13.2328 26.7881 13.2328 27.5791 12.7239C28.2657 12.2823 28.5504 11.4449 28.2684 10.6967L27.2838 8.08415C26.9082 7.08737 25.9561 6.40016 24.859 6.334L16.6002 5.83593L8.14052 6.34611C7.11264 6.4081 6.20574 7.01644 5.78747 7.92455L5.03312 9.56227C4.62629 10.4455 4.74663 11.4721 5.34765 12.2453L5.80128 12.8289C6.56399 13.2299 7.50144 13.195 8.23367 12.7239L8.37719 12.6316C9.98275 11.5988 12.0388 11.4753 13.7647 12.308L15.3642 13.0797C16.1423 13.455 17.0581 13.455 17.8361 13.0797L19.4356 12.308C21.1616 11.4753 23.2176 11.5988 24.8231 12.6316L24.9667 12.7239ZM18.3908 23.7111L18.0923 27.1667H15.108L14.8095 23.7111C14.7222 22.7003 15.5489 21.8333 16.6002 21.8333C17.6514 21.8333 18.4781 22.7003 18.3908 23.7111Z" fill="#0EA5E9"/>
</svg>
