<svg width="20" height="21" viewBox="0 0 20 21" fill="none" xmlns="http://www.w3.org/2000/svg">
<path d="M10.8333 3.61751C10.8333 3.15728 10.4602 2.78418 10 2.78418C9.53976 2.78418 9.16667 3.15728 9.16667 3.61751V9.45085H3.33333C2.8731 9.45085 2.5 9.82394 2.5 10.2842C2.5 10.7444 2.8731 11.1175 3.33333 11.1175H9.16667V16.9508C9.16667 17.4111 9.53976 17.7842 10 17.7842C10.4602 17.7842 10.8333 17.4111 10.8333 16.9508V11.1175H16.6667C17.1269 11.1175 17.5 10.7444 17.5 10.2842C17.5 9.82394 17.1269 9.45085 16.6667 9.45085H10.8333V3.61751Z" fill="#98A2B3"/>
</svg>
