 <svg width="15" height="14" viewBox="0 0 15 14" fill="none" xmlns="http://www.w3.org/2000/svg">
<path d="M6.34588 1.30005C6.87759 0.45467 8.12225 0.454671 8.65396 1.30005L9.93988 3.34455C10.127 3.64199 10.4242 3.85544 10.7681 3.93941L13.1325 4.51658C14.1101 4.75523 14.4947 5.92539 13.8457 6.68652L12.2761 8.52726C12.0478 8.79506 11.9342 9.14043 11.9597 9.48976L12.1351 11.891C12.2076 12.8838 11.2006 13.607 10.2678 13.2321L8.01181 12.3252C7.6836 12.1933 7.31624 12.1933 6.98803 12.3252L4.73204 13.2321C3.7992 13.6071 2.79226 12.8838 2.86476 11.891L3.04009 9.48976C3.0656 9.14043 2.95208 8.79506 2.72373 8.52726L1.15411 6.68652C0.505091 5.92539 0.88971 4.75523 1.86735 4.51658L4.23171 3.93941C4.57568 3.85544 4.87288 3.64199 5.05996 3.34455L6.34588 1.30005Z" fill="#F56630"/>
</svg>